<svg width="67" xmlns="http://www.w3.org/2000/svg" height="67.127" id="screenshot-194034af-dc62-807f-8008-4e742f3bc090" viewBox="0 0 67 67.127" xmlns:xlink="http://www.w3.org/1999/xlink" fill="none" version="1.1"><g id="shape-194034af-dc62-807f-8008-4e742f3bc090" rx="0" ry="0"><g id="shape-194034af-dc62-807f-8008-4e71fbff30fa"><g class="fills" id="fills-194034af-dc62-807f-8008-4e71fbff30fa"><rect rx="33.5" ry="33.5" x="0" y="0" transform="matrix(1.000000, 0.000000, 0.000000, 1.000000, 0.000000, 0.000000)" width="67" height="67.12686567164178" style="fill: rgb(67, 101, 198); fill-opacity: 1;"/></g></g><g id="shape-194034af-dc62-807f-8008-4e73f6fa7d7d" rx="0" ry="0"><g id="shape-194034af-dc62-807f-8008-4e7183114080"><g class="fills" id="fills-194034af-dc62-807f-8008-4e7183114080"><path d="M33.5,22.055950164794922L33.5,33.56339645385742L44.9857177734375,33.56339645385742" fill="none" stroke-linecap="round" stroke-linejoin="round" style="fill: none;"/></g><g fill="none" stroke-linecap="round" stroke-linejoin="round" id="strokes-74488bbd-12e7-8018-8008-53be5d706cd6-194034af-dc62-807f-8008-4e7183114080" class="strokes"><g class="stroke-shape"><path d="M33.5,22.055950164794922L33.5,33.56339645385742L44.9857177734375,33.56339645385742" style="fill: none; stroke-width: 3; stroke: rgb(255, 254, 254); stroke-opacity: 1;"/></g></g></g><g id="shape-194034af-dc62-807f-8008-4e718311bc22"><g class="fills" id="fills-194034af-dc62-807f-8008-4e718311bc22"><path d="M33.5,52.74253463745117C44.028564453125,52.74253463745117,52.642822265625,44.14939498901367,52.642822265625,33.56339645385742C52.642822265625,22.977458953857422,44.028564453125,14.384319305419922,33.5,14.384319305419922C22.971435546875,14.384319305419922,14.357177734375,22.977458953857422,14.357177734375,33.56339645385742C14.357177734375,44.14939498901367,22.971435546875,52.74253463745117,33.5,52.74253463745117Z" fill="none" stroke-linecap="round" stroke-linejoin="round" style="fill: none;"/></g><g fill="none" stroke-linecap="round" stroke-linejoin="round" id="strokes-74488bbd-12e7-8018-8008-53be5d717ba7-194034af-dc62-807f-8008-4e718311bc22" class="strokes"><g class="inner-stroke-shape"><defs><clipPath id="inner-stroke-render-5-194034af-dc62-807f-8008-4e718311bc22-0"><use href="#stroke-shape-render-5-194034af-dc62-807f-8008-4e718311bc22-0"/></clipPath><path d="M33.5,52.74253463745117C44.028564453125,52.74253463745117,52.642822265625,44.14939498901367,52.642822265625,33.56339645385742C52.642822265625,22.977458953857422,44.028564453125,14.384319305419922,33.5,14.384319305419922C22.971435546875,14.384319305419922,14.357177734375,22.977458953857422,14.357177734375,33.56339645385742C14.357177734375,44.14939498901367,22.971435546875,52.74253463745117,33.5,52.74253463745117Z" id="stroke-shape-render-5-194034af-dc62-807f-8008-4e718311bc22-0" style="fill: none; stroke-width: 6; stroke: rgb(255, 254, 254); stroke-opacity: 1;"/></defs><use href="#stroke-shape-render-5-194034af-dc62-807f-8008-4e718311bc22-0" clip-path="url('#inner-stroke-render-5-194034af-dc62-807f-8008-4e718311bc22-0')"/></g></g></g></g></g></svg>