<svg width="28" xmlns="http://www.w3.org/2000/svg" height="28" id="screenshot-4774c899-aa1f-8049-8008-51a634403d00" viewBox="0 0 28 28" xmlns:xlink="http://www.w3.org/1999/xlink" fill="none" version="1.1"><g id="shape-4774c899-aa1f-8049-8008-51a634403d00" rx="0" ry="0"><g id="shape-4774c899-aa1f-8049-8008-51a634403d02"><g class="fills" id="fills-4774c899-aa1f-8049-8008-51a634403d02"><path d="M7,22.4000244140625L7,21.00006103515625C7,17.13629150390625,10.080078125,14.00006103515625,14,14.00006103515625L14,14.00006103515625C17.919921875,14.00006103515625,21,17.13629150390625,21,21.00006103515625L21,22.4000244140625" fill="none" stroke-linecap="round" style="fill: none;"/></g><g fill="none" stroke-linecap="round" id="strokes-78592de5-e8f9-8058-8008-6c9e5ed17824-4774c899-aa1f-8049-8008-51a634403d02" class="strokes"><g class="stroke-shape"><path d="M7,22.4000244140625L7,21.00006103515625C7,17.13629150390625,10.080078125,14.00006103515625,14,14.00006103515625L14,14.00006103515625C17.919921875,14.00006103515625,21,17.13629150390625,21,21.00006103515625L21,22.4000244140625" style="fill: none; stroke-width: 2.3; stroke: rgb(255, 255, 255); stroke-opacity: 1;"/></g></g></g><g id="shape-4774c899-aa1f-8049-8008-51a634403d03"><g class="fills" id="fills-4774c899-aa1f-8049-8008-51a634403d03"><path d="M14,14.00006103515625C16.3798828125,14.00006103515625,18.19970703125,12.124267578125,18.19970703125,9.800048828125C18.19970703125,7.47589111328125,16.3798828125,5.60009765625,14,5.60009765625C11.61962890625,5.60009765625,9.7998046875,7.47589111328125,9.7998046875,9.800048828125C9.7998046875,12.124267578125,11.61962890625,14.00006103515625,14,14.00006103515625Z" fill="none" stroke-linecap="round" stroke-linejoin="round" style="fill: none;"/></g><g fill="none" stroke-linecap="round" stroke-linejoin="round" id="strokes-78592de5-e8f9-8058-8008-6c9e5ed2be87-4774c899-aa1f-8049-8008-51a634403d03" class="strokes"><g class="inner-stroke-shape"><defs><clipPath id="inner-stroke-render-3-4774c899-aa1f-8049-8008-51a634403d03-0"><use href="#stroke-shape-render-3-4774c899-aa1f-8049-8008-51a634403d03-0"/></clipPath><path d="M14,14.00006103515625C16.3798828125,14.00006103515625,18.19970703125,12.124267578125,18.19970703125,9.800048828125C18.19970703125,7.47589111328125,16.3798828125,5.60009765625,14,5.60009765625C11.61962890625,5.60009765625,9.7998046875,7.47589111328125,9.7998046875,9.800048828125C9.7998046875,12.124267578125,11.61962890625,14.00006103515625,14,14.00006103515625Z" id="stroke-shape-render-3-4774c899-aa1f-8049-8008-51a634403d03-0" style="fill: none; stroke-width: 4.6; stroke: rgb(255, 255, 255); stroke-opacity: 1;"/></defs><use href="#stroke-shape-render-3-4774c899-aa1f-8049-8008-51a634403d03-0" clip-path="url('#inner-stroke-render-3-4774c899-aa1f-8049-8008-51a634403d03-0')"/></g></g></g><g id="shape-4774c899-aa1f-8049-8008-51a634403d04"><g class="fills" id="fills-4774c899-aa1f-8049-8008-51a634403d04"><ellipse cx="14" cy="14" rx="14" ry="14" transform="matrix(1.000000, 0.000000, 0.000000, 1.000000, 0.000000, 0.000000)" fill="none" style="fill: none;"/></g><g fill="none" id="strokes-78592de5-e8f9-8058-8008-6c9e5ed354a2-4774c899-aa1f-8049-8008-51a634403d04" class="strokes"><g class="inner-stroke-shape" transform="matrix(1.000000, 0.000000, 0.000000, 1.000000, 0.000000, 0.000000)"><defs><clipPath id="inner-stroke-render-4-4774c899-aa1f-8049-8008-51a634403d04-0"><use href="#stroke-shape-render-4-4774c899-aa1f-8049-8008-51a634403d04-0"/></clipPath><ellipse cx="14" cy="14" rx="14" ry="14" id="stroke-shape-render-4-4774c899-aa1f-8049-8008-51a634403d04-0" style="fill: none; stroke-width: 4.6; stroke: rgb(255, 255, 255); stroke-opacity: 1;"/></defs><use href="#stroke-shape-render-4-4774c899-aa1f-8049-8008-51a634403d04-0" clip-path="url('#inner-stroke-render-4-4774c899-aa1f-8049-8008-51a634403d04-0')"/></g></g></g></g></svg>